<svg width="1920" height="960" viewBox="0 0 1920 960" fill="none" xmlns="http://www.w3.org/2000/svg">
<g id="Mask Group">
<g id="Plugin / file cover - 1">
<g id="Group 1">
<g id="The Ghost Table">
<path d="M393.875 432.904L375.443 434.44L371.603 410.44H347.219V498.76H368.147V517H305.747V498.76H325.907V410.44H301.331L297.491 434.44L279.251 432.904L283.091 392.2H390.035L393.875 432.904ZM505.748 517H459.476V501.256H472.34V467.464C472.34 459.272 470.804 453.512 467.732 450.184C464.66 446.728 460.5 445 455.252 445C448.98 445 443.988 447.048 440.276 451.144C436.564 455.24 434.58 460.232 434.324 466.12V501.256H446.996V517H400.916V501.256H413.78V400.648H400.916V384.904H434.324V445C440.212 434.376 449.748 429.064 462.932 429.064C471.252 429.064 478.292 431.56 484.052 436.552C489.94 441.544 492.884 449.352 492.884 459.976V501.256H505.748V517ZM594.69 490.696C593.922 498.248 590.21 504.84 583.554 510.472C576.898 516.104 567.746 518.92 556.098 518.92C543.554 518.92 533.25 515.272 525.186 507.976C517.122 500.552 513.09 489.672 513.09 475.336C513.09 462.152 516.738 451.144 524.034 442.312C531.458 433.48 541.762 429.064 554.946 429.064C566.85 429.064 576.258 432.648 583.17 439.816C590.21 446.856 593.794 455.816 593.922 466.696C593.922 470.28 593.538 474.12 592.77 478.216H534.594C535.746 494.344 543.426 502.408 557.634 502.408C564.29 502.408 569.026 500.808 571.842 497.608C574.786 494.408 576.706 491.016 577.602 487.432L594.69 490.696ZM572.802 465.544C573.314 460.424 572.098 455.624 569.154 451.144C566.338 446.536 561.538 444.232 554.754 444.232C548.61 444.232 543.938 446.28 540.738 450.376C537.538 454.472 535.554 459.528 534.786 465.544H572.802ZM1298.19 432.904L1279.76 434.44L1275.92 410.44H1251.53V498.76H1272.46V517H1210.06V498.76H1230.22V410.44H1205.64L1201.8 434.44L1183.56 432.904L1187.4 392.2H1294.35L1298.19 432.904ZM1312.8 437.128C1319.2 434.056 1324.89 431.944 1329.89 430.792C1334.88 429.64 1340.64 429.064 1347.17 429.064C1356.77 429.064 1364.64 431.496 1370.78 436.36C1377.05 441.224 1380.19 448.52 1380.19 458.248V497.032C1380.19 502.152 1382.3 504.712 1386.53 504.712C1387.68 504.712 1389.15 504.456 1390.94 503.944L1391.13 515.272C1386.91 517.704 1382.3 518.92 1377.31 518.92C1366.43 518.92 1360.54 513.224 1359.65 501.832V501.448C1357.09 505.928 1353.44 509.96 1348.7 513.544C1344.09 517.128 1338.33 518.92 1331.42 518.92C1325.41 518.92 1319.45 517.128 1313.57 513.544C1307.81 509.832 1304.93 503.432 1304.93 494.344C1304.93 483.72 1309.15 476.744 1317.6 473.416C1326.05 469.96 1335.2 468.232 1345.05 468.232C1347.49 468.232 1349.98 468.296 1352.54 468.424C1355.1 468.552 1357.47 468.744 1359.65 469V464.2C1359.65 459.08 1358.75 454.472 1356.96 450.376C1355.17 446.28 1350.69 444.232 1343.52 444.232C1340.83 444.232 1338.27 444.424 1335.84 444.808C1333.53 445.192 1331.29 445.96 1329.12 447.112L1325.66 460.36L1309.15 458.632L1312.8 437.128ZM1359.65 482.824V479.752C1357.47 479.496 1355.23 479.24 1352.93 478.984C1350.62 478.728 1348.25 478.6 1345.82 478.6C1340.7 478.6 1336.09 479.496 1332 481.288C1328.03 483.08 1326.05 486.664 1326.05 492.04C1326.05 499.848 1330.21 503.752 1338.53 503.752C1343.39 503.752 1348 502.024 1352.35 498.568C1356.7 494.984 1359.13 489.736 1359.65 482.824ZM1493.48 471.88C1493.48 484.04 1490.28 494.92 1483.88 504.52C1477.48 514.12 1467.63 518.92 1454.31 518.92C1440.75 518.92 1431.21 513.8 1425.71 503.56C1425.45 505.096 1425.13 507.336 1424.75 510.28C1424.36 513.224 1424.04 515.464 1423.79 517H1403.43C1404.2 512.776 1404.91 508.488 1405.55 504.136C1406.19 499.656 1406.51 495.304 1406.51 491.08V400.648H1393.64V384.904H1426.86V447.88C1429.42 442.76 1433 438.344 1437.61 434.632C1442.35 430.92 1448.68 429.064 1456.62 429.064C1467.5 429.064 1476.33 432.84 1483.11 440.392C1490.03 447.816 1493.48 458.312 1493.48 471.88ZM1472.17 473.608C1472.17 464.52 1470.12 457.608 1466.03 452.872C1461.93 448.008 1456.68 445.576 1450.28 445.576C1442.99 445.576 1437.29 448.264 1433.19 453.64C1429.1 459.016 1426.99 464.84 1426.86 471.112V477.256C1426.86 484.296 1428.91 490.312 1433 495.304C1437.23 500.168 1442.73 502.6 1449.51 502.6C1456.68 502.6 1462.25 499.976 1466.22 494.728C1470.19 489.48 1472.17 482.44 1472.17 473.608ZM1548.38 517H1502.3V501.256H1515.17V400.648H1501.54V384.904H1535.52V501.256H1548.38V517ZM1638.88 490.696C1638.11 498.248 1634.4 504.84 1627.74 510.472C1621.09 516.104 1611.93 518.92 1600.29 518.92C1587.74 518.92 1577.44 515.272 1569.37 507.976C1561.31 500.552 1557.28 489.672 1557.28 475.336C1557.28 462.152 1560.93 451.144 1568.22 442.312C1575.65 433.48 1585.95 429.064 1599.13 429.064C1611.04 429.064 1620.45 432.648 1627.36 439.816C1634.4 446.856 1637.98 455.816 1638.11 466.696C1638.11 470.28 1637.73 474.12 1636.96 478.216H1578.78C1579.93 494.344 1587.61 502.408 1601.82 502.408C1608.48 502.408 1613.21 500.808 1616.03 497.608C1618.97 494.408 1620.89 491.016 1621.79 487.432L1638.88 490.696ZM1616.99 465.544C1617.5 460.424 1616.29 455.624 1613.34 451.144C1610.53 446.536 1605.73 444.232 1598.94 444.232C1592.8 444.232 1588.13 446.28 1584.93 450.376C1581.73 454.472 1579.74 459.528 1578.97 465.544H1616.99Z" fill="black"/>
<path d="M765.126 468.04H757.638V517H741.126L739.014 502.408C735.174 507.272 730.118 511.24 723.846 514.312C717.574 517.384 710.214 518.92 701.766 518.92C684.358 518.92 670.406 512.84 659.91 500.68C649.542 488.392 644.358 473.288 644.358 455.368C644.358 437.576 649.862 422.28 660.87 409.48C671.878 396.68 687.366 390.28 707.334 390.28C717.446 390.28 726.47 391.752 734.406 394.696C742.342 397.512 748.486 400.968 752.838 405.064L756.294 430.792L738.822 432.52L735.366 416.776C727.942 411.656 718.47 409.096 706.95 409.096C695.302 409.096 685.766 413.064 678.342 421C670.918 428.936 667.206 440.264 667.206 454.984C667.206 469.448 670.726 480.584 677.766 488.392C684.806 496.2 694.022 500.104 705.414 500.104C715.014 500.104 722.566 497.544 728.07 492.424C733.574 487.176 736.326 480.584 736.326 472.648V468.04H709.83V449.8H765.126V468.04ZM877.935 517H831.663V501.256H844.527V467.464C844.527 459.272 842.991 453.512 839.919 450.184C836.847 446.728 832.687 445 827.439 445C821.167 445 816.175 447.048 812.463 451.144C808.751 455.24 806.767 460.232 806.511 466.12V501.256H819.183V517H773.103V501.256H785.967V400.648H773.103V384.904H806.511V445C812.399 434.376 821.935 429.064 835.119 429.064C843.439 429.064 850.479 431.56 856.239 436.552C862.127 441.544 865.071 449.352 865.071 459.976V501.256H877.935V517ZM974.75 473.992C974.75 487.432 970.462 498.312 961.886 506.632C953.438 514.824 942.43 518.92 928.862 518.92C915.678 518.92 905.054 514.952 896.99 507.016C889.054 499.08 885.086 488.328 885.086 474.76C885.086 462.216 888.862 451.464 896.414 442.504C903.966 433.416 915.166 428.872 930.014 428.872C944.99 428.872 956.19 433.352 963.614 442.312C971.038 451.272 974.75 461.832 974.75 473.992ZM953.438 473.416C953.438 464.2 951.198 457.16 946.718 452.296C942.366 447.432 936.67 445 929.63 445C922.334 445 916.638 447.624 912.542 452.872C908.446 457.992 906.398 464.904 906.398 473.608C906.398 481.8 908.318 488.712 912.158 494.344C916.126 499.976 921.95 502.792 929.63 502.792C937.054 502.792 942.878 500.104 947.102 494.728C951.326 489.224 953.438 482.12 953.438 473.416ZM1060.49 491.272C1060.49 500.232 1056.78 507.08 1049.35 511.816C1042.06 516.552 1032.71 518.92 1021.32 518.92C1015.18 518.92 1008.97 518.216 1002.7 516.808C996.552 515.4 990.984 513.288 985.992 510.472L989.064 488.2L1005.19 489.736L1005 500.872C1007.43 501.896 1009.99 502.6 1012.68 502.984C1015.5 503.368 1017.99 503.56 1020.17 503.56C1025.42 503.56 1029.96 502.664 1033.8 500.872C1037.77 498.952 1039.75 496.136 1039.75 492.424C1039.75 488.84 1037.96 486.28 1034.38 484.744C1030.92 483.208 1026.57 482.056 1021.32 481.288C1016.07 480.392 1010.82 479.24 1005.58 477.832C1000.33 476.296 995.912 473.864 992.328 470.536C988.872 467.08 987.144 461.96 987.144 455.176C987.144 445.192 990.92 438.344 998.472 434.632C1006.15 430.92 1014.22 429.064 1022.66 429.064C1033.8 429.064 1044.3 431.688 1054.15 436.936L1056.26 458.248L1040.14 460.168L1038.41 447.304C1033.42 445.384 1028.36 444.424 1023.24 444.424C1019.27 444.424 1015.88 445.256 1013.06 446.92C1010.38 448.456 1009.03 450.952 1009.03 454.408C1009.03 457.992 1010.76 460.488 1014.22 461.896C1017.67 463.304 1021.96 464.456 1027.08 465.352C1032.2 466.12 1037.32 467.272 1042.44 468.808C1047.56 470.216 1051.85 472.648 1055.3 476.104C1058.76 479.432 1060.49 484.488 1060.49 491.272ZM1141.35 491.656C1138.92 509.832 1128.81 518.92 1111.02 518.92C1101.8 518.92 1094.44 516.488 1088.94 511.624C1083.56 506.76 1080.87 499.976 1080.87 491.272V445.96H1068.2V430.792H1080.87V404.104H1101.42V430.792H1133.48V445.96H1101.42V488.008C1101.42 497.096 1105.39 501.64 1113.32 501.64C1115.5 501.64 1117.93 500.872 1120.62 499.336C1123.31 497.672 1125.16 493.512 1126.19 486.856L1141.35 491.656Z" fill="#9E9D9B"/>
</g>
<g id="STUDIO | EST. 2021">
<path d="M413.032 602.832C413.032 605.936 411.944 608.32 409.768 609.984C407.624 611.648 404.776 612.48 401.224 612.48C399.112 612.48 397.064 612.224 395.08 611.712C393.128 611.2 391.576 610.464 390.424 609.504L391.288 602.352L395.56 602.784L395.464 606.624C396.52 607.168 397.48 607.52 398.344 607.68C399.24 607.808 400.072 607.872 400.84 607.872C402.696 607.872 404.232 607.584 405.448 607.008C406.696 606.4 407.32 605.2 407.32 603.408C407.32 601.456 406.616 600.16 405.208 599.52C403.8 598.848 402.184 598.336 400.36 597.984C398.888 597.696 397.4 597.312 395.896 596.832C394.392 596.352 393.144 595.552 392.152 594.432C391.16 593.312 390.664 591.664 390.664 589.488C390.664 586.224 391.768 583.888 393.976 582.48C396.216 581.04 398.712 580.32 401.464 580.32C403.384 580.32 405.24 580.608 407.032 581.184C408.856 581.76 410.28 582.512 411.304 583.44L411.592 590.016L407.32 590.4L406.888 586.368C405.992 585.856 405.096 585.504 404.2 585.312C403.304 585.12 402.44 585.024 401.608 585.024C400.104 585.024 398.856 585.328 397.864 585.936C396.872 586.544 396.376 587.52 396.376 588.864C396.376 590.432 396.984 591.504 398.2 592.08C399.448 592.624 400.84 593.072 402.376 593.424C403.688 593.712 405.176 594.096 406.84 594.576C408.504 595.056 409.944 595.92 411.16 597.168C412.408 598.384 413.032 600.272 413.032 602.832ZM487.617 590.976L483.009 591.36L482.049 585.36H475.953V607.44H481.185V612H465.585V607.44H470.625V585.36H464.481L463.521 591.36L458.961 590.976L459.921 580.8H486.657L487.617 590.976ZM564.833 585.36H561.953V599.136C561.953 601.344 561.537 603.472 560.705 605.52C559.905 607.536 558.545 609.2 556.625 610.512C554.737 611.824 552.161 612.48 548.897 612.48C544.193 612.48 540.913 611.184 539.057 608.592C537.201 606 536.273 603.024 536.273 599.664V585.36H533.297V580.8H545.489V585.36H541.601V599.52C541.601 601.984 542.193 603.984 543.377 605.52C544.561 607.024 546.497 607.776 549.185 607.776C551.809 607.776 553.761 607.024 555.041 605.52C556.321 603.984 556.961 601.856 556.961 599.136V585.36H552.977V580.8H564.833V585.36ZM641.669 596.304C641.669 600.976 640.277 604.768 637.493 607.68C634.709 610.56 630.853 612 625.925 612H611.429V607.44H615.029V585.36H611.429V580.8H625.637C630.885 580.8 634.869 582.24 637.589 585.12C640.309 588 641.669 591.728 641.669 596.304ZM635.957 596.352C635.957 589.024 632.469 585.36 625.493 585.36H620.357V607.44H625.493C632.469 607.44 635.957 603.744 635.957 596.352ZM700.25 612H687.77V607.44H691.37V585.36H687.77V580.8H700.25V585.36H696.698V607.44H700.25V612ZM777.966 596.352C777.966 600.768 776.542 604.56 773.694 607.728C770.846 610.896 766.958 612.48 762.03 612.48C757.07 612.48 753.214 610.896 750.462 607.728C747.71 604.56 746.334 600.8 746.334 596.448C746.334 591.904 747.774 588.08 750.654 584.976C753.534 581.872 757.374 580.32 762.174 580.32C767.038 580.32 770.878 581.904 773.694 585.072C776.542 588.208 777.966 591.968 777.966 596.352ZM772.206 596.496C772.206 593.008 771.31 590.224 769.518 588.144C767.758 586.064 765.294 585.024 762.126 585.024C758.798 585.024 756.286 586.112 754.59 588.288C752.926 590.432 752.094 593.104 752.094 596.304C752.094 599.408 752.91 602.096 754.542 604.368C756.206 606.64 758.782 607.776 762.27 607.776C765.566 607.776 768.046 606.72 769.71 604.608C771.374 602.464 772.206 599.76 772.206 596.496ZM1008.76 612H985.004V607.44H988.604V585.36H985.004V580.8H1008.43L1009.39 589.824L1004.83 590.208L1003.87 585.36H993.932V594H1007.66V598.56H993.932V607.44H1004.2L1005.16 602.592L1009.72 602.976L1008.76 612ZM1079.22 602.832C1079.22 605.936 1078.13 608.32 1075.96 609.984C1073.81 611.648 1070.96 612.48 1067.41 612.48C1065.3 612.48 1063.25 612.224 1061.27 611.712C1059.32 611.2 1057.76 610.464 1056.61 609.504L1057.48 602.352L1061.75 602.784L1061.65 606.624C1062.71 607.168 1063.67 607.52 1064.53 607.68C1065.43 607.808 1066.26 607.872 1067.03 607.872C1068.88 607.872 1070.42 607.584 1071.64 607.008C1072.88 606.4 1073.51 605.2 1073.51 603.408C1073.51 601.456 1072.8 600.16 1071.4 599.52C1069.99 598.848 1068.37 598.336 1066.55 597.984C1065.08 597.696 1063.59 597.312 1062.08 596.832C1060.58 596.352 1059.33 595.552 1058.34 594.432C1057.35 593.312 1056.85 591.664 1056.85 589.488C1056.85 586.224 1057.96 583.888 1060.16 582.48C1062.4 581.04 1064.9 580.32 1067.65 580.32C1069.57 580.32 1071.43 580.608 1073.22 581.184C1075.04 581.76 1076.47 582.512 1077.49 583.44L1077.78 590.016L1073.51 590.4L1073.08 586.368C1072.18 585.856 1071.28 585.504 1070.39 585.312C1069.49 585.12 1068.63 585.024 1067.8 585.024C1066.29 585.024 1065.04 585.328 1064.05 585.936C1063.06 586.544 1062.56 587.52 1062.56 588.864C1062.56 590.432 1063.17 591.504 1064.39 592.08C1065.64 592.624 1067.03 593.072 1068.56 593.424C1069.88 593.712 1071.36 594.096 1073.03 594.576C1074.69 595.056 1076.13 595.92 1077.35 597.168C1078.6 598.384 1079.22 600.272 1079.22 602.832ZM1153.8 590.976L1149.2 591.36L1148.24 585.36H1142.14V607.44H1147.37V612H1131.77V607.44H1136.81V585.36H1130.67L1129.71 591.36L1125.15 590.976L1126.11 580.8H1152.84L1153.8 590.976ZM1197.77 612V605.184H1204.1V612H1197.77ZM1305.9 588.48C1307.47 587.776 1309.07 587.28 1310.7 586.992C1312.33 586.672 1313.77 586.512 1315.02 586.512C1318.57 586.512 1321.07 587.28 1322.51 588.816C1323.95 590.352 1324.67 592.032 1324.67 593.856C1324.67 596 1323.92 597.888 1322.41 599.52C1320.91 601.152 1319.07 602.608 1316.89 603.888C1314.75 605.136 1312.67 606.32 1310.65 607.44H1321.69L1322.08 604.224L1326.4 604.608L1325.72 612H1304.8L1304.32 607.824C1308.41 605.168 1311.87 602.848 1314.68 600.864C1317.53 598.848 1318.96 596.768 1318.96 594.624C1318.96 593.408 1318.51 592.512 1317.61 591.936C1316.75 591.36 1315.61 591.072 1314.2 591.072C1313.56 591.072 1312.83 591.136 1312 591.264C1311.16 591.392 1310.44 591.616 1309.84 591.936L1309.07 595.488L1304.94 595.056L1305.9 588.48ZM1396.88 599.712C1396.88 603.936 1395.79 607.12 1393.61 609.264C1391.44 611.408 1388.46 612.48 1384.68 612.48C1380.88 612.48 1377.93 611.408 1375.85 609.264C1373.8 607.12 1372.78 603.968 1372.78 599.808C1372.78 595.904 1373.8 592.72 1375.85 590.256C1377.9 587.76 1380.91 586.512 1384.88 586.512C1389 586.512 1392.03 587.776 1393.95 590.304C1395.9 592.8 1396.88 595.936 1396.88 599.712ZM1391.16 599.472C1391.16 596.464 1390.6 594.336 1389.48 593.088C1388.4 591.84 1386.84 591.216 1384.83 591.216C1382.78 591.216 1381.21 591.856 1380.12 593.136C1379.04 594.416 1378.49 596.528 1378.49 599.472C1378.49 602.448 1379.02 604.576 1380.08 605.856C1381.16 607.136 1382.73 607.776 1384.78 607.776C1386.73 607.776 1388.28 607.168 1389.44 605.952C1390.59 604.736 1391.16 602.576 1391.16 599.472ZM1445.36 588.48C1446.93 587.776 1448.53 587.28 1450.16 586.992C1451.8 586.672 1453.24 586.512 1454.48 586.512C1458.04 586.512 1460.53 587.28 1461.97 588.816C1463.41 590.352 1464.13 592.032 1464.13 593.856C1464.13 596 1463.38 597.888 1461.88 599.52C1460.37 601.152 1458.53 602.608 1456.36 603.888C1454.21 605.136 1452.13 606.32 1450.12 607.44H1461.16L1461.54 604.224L1465.86 604.608L1465.19 612H1444.26L1443.78 607.824C1447.88 605.168 1451.33 602.848 1454.15 600.864C1457 598.848 1458.42 596.768 1458.42 594.624C1458.42 593.408 1457.97 592.512 1457.08 591.936C1456.21 591.36 1455.08 591.072 1453.67 591.072C1453.03 591.072 1452.29 591.136 1451.46 591.264C1450.63 591.392 1449.91 591.616 1449.3 591.936L1448.53 595.488L1444.4 595.056L1445.36 588.48ZM1528.66 612H1512.72V607.44H1518.19V591.552H1512.72V586.992H1523.52V607.44H1528.66V612Z" fill="#7A7A7A"/>
<path d="M883.418 576.96V615.84H879.002V576.96H883.418Z" fill="black"/>
</g>
</g>
</g>
</g>
</svg>
