<svg width="1369" height="288" viewBox="0 0 1369 288" fill="none" xmlns="http://www.w3.org/2000/svg">
<path d="M118.875 96.904L100.443 98.44L96.6028 74.44H72.2188V162.76H93.1468V181H30.7468V162.76H50.9067V74.44H26.3308L22.4908 98.44L4.25075 96.904L8.09075 56.2H115.035L118.875 96.904ZM230.748 181H184.476V165.256H197.34V131.464C197.34 123.272 195.804 117.512 192.732 114.184C189.66 110.728 185.5 109 180.252 109C173.98 109 168.988 111.048 165.276 115.144C161.564 119.24 159.58 124.232 159.324 130.12V165.256H171.996V181H125.916V165.256H138.78V64.648H125.916V48.904H159.324V109C165.212 98.376 174.748 93.064 187.932 93.064C196.252 93.064 203.292 95.56 209.052 100.552C214.94 105.544 217.884 113.352 217.884 123.976V165.256H230.748V181ZM319.69 154.696C318.922 162.248 315.21 168.84 308.554 174.472C301.898 180.104 292.746 182.92 281.098 182.92C268.554 182.92 258.25 179.272 250.186 171.976C242.122 164.552 238.09 153.672 238.09 139.336C238.09 126.152 241.738 115.144 249.034 106.312C256.458 97.48 266.762 93.064 279.946 93.064C291.85 93.064 301.258 96.648 308.17 103.816C315.21 110.856 318.794 119.816 318.922 130.696C318.922 134.28 318.538 138.12 317.77 142.216H259.594C260.746 158.344 268.426 166.408 282.634 166.408C289.29 166.408 294.026 164.808 296.842 161.608C299.786 158.408 301.706 155.016 302.602 151.432L319.69 154.696ZM297.802 129.544C298.314 124.424 297.098 119.624 294.154 115.144C291.338 110.536 286.538 108.232 279.754 108.232C273.61 108.232 268.938 110.28 265.738 114.376C262.538 118.472 260.554 123.528 259.786 129.544H297.802ZM1023.19 96.904L1004.76 98.44L1000.92 74.44H976.531V162.76H997.459V181H935.059V162.76H955.219V74.44H930.643L926.803 98.44L908.563 96.904L912.403 56.2H1019.35L1023.19 96.904ZM1037.8 101.128C1044.2 98.056 1049.89 95.944 1054.89 94.792C1059.88 93.64 1065.64 93.064 1072.17 93.064C1081.77 93.064 1089.64 95.496 1095.78 100.36C1102.05 105.224 1105.19 112.52 1105.19 122.248V161.032C1105.19 166.152 1107.3 168.712 1111.53 168.712C1112.68 168.712 1114.15 168.456 1115.94 167.944L1116.13 179.272C1111.91 181.704 1107.3 182.92 1102.31 182.92C1091.43 182.92 1085.54 177.224 1084.65 165.832V165.448C1082.09 169.928 1078.44 173.96 1073.7 177.544C1069.09 181.128 1063.33 182.92 1056.42 182.92C1050.41 182.92 1044.45 181.128 1038.57 177.544C1032.81 173.832 1029.93 167.432 1029.93 158.344C1029.93 147.72 1034.15 140.744 1042.6 137.416C1051.05 133.96 1060.2 132.232 1070.05 132.232C1072.49 132.232 1074.98 132.296 1077.54 132.424C1080.1 132.552 1082.47 132.744 1084.65 133V128.2C1084.65 123.08 1083.75 118.472 1081.96 114.376C1080.17 110.28 1075.69 108.232 1068.52 108.232C1065.83 108.232 1063.27 108.424 1060.84 108.808C1058.53 109.192 1056.29 109.96 1054.12 111.112L1050.66 124.36L1034.15 122.632L1037.8 101.128ZM1084.65 146.824V143.752C1082.47 143.496 1080.23 143.24 1077.93 142.984C1075.62 142.728 1073.25 142.6 1070.82 142.6C1065.7 142.6 1061.09 143.496 1057 145.288C1053.03 147.08 1051.05 150.664 1051.05 156.04C1051.05 163.848 1055.21 167.752 1063.53 167.752C1068.39 167.752 1073 166.024 1077.35 162.568C1081.7 158.984 1084.13 153.736 1084.65 146.824ZM1218.48 135.88C1218.48 148.04 1215.28 158.92 1208.88 168.52C1202.48 178.12 1192.63 182.92 1179.31 182.92C1165.75 182.92 1156.21 177.8 1150.71 167.56C1150.45 169.096 1150.13 171.336 1149.75 174.28C1149.36 177.224 1149.04 179.464 1148.79 181H1128.43C1129.2 176.776 1129.91 172.488 1130.55 168.136C1131.19 163.656 1131.51 159.304 1131.51 155.08V64.648H1118.64V48.904H1151.86V111.88C1154.42 106.76 1158 102.344 1162.61 98.632C1167.35 94.92 1173.68 93.064 1181.62 93.064C1192.5 93.064 1201.33 96.84 1208.11 104.392C1215.03 111.816 1218.48 122.312 1218.48 135.88ZM1197.17 137.608C1197.17 128.52 1195.12 121.608 1191.03 116.872C1186.93 112.008 1181.68 109.576 1175.28 109.576C1167.99 109.576 1162.29 112.264 1158.19 117.64C1154.1 123.016 1151.99 128.84 1151.86 135.112V141.256C1151.86 148.296 1153.91 154.312 1158 159.304C1162.23 164.168 1167.73 166.6 1174.51 166.6C1181.68 166.6 1187.25 163.976 1191.22 158.728C1195.19 153.48 1197.17 146.44 1197.17 137.608ZM1273.38 181H1227.3V165.256H1240.17V64.648H1226.54V48.904H1260.52V165.256H1273.38V181ZM1363.88 154.696C1363.11 162.248 1359.4 168.84 1352.74 174.472C1346.09 180.104 1336.93 182.92 1325.29 182.92C1312.74 182.92 1302.44 179.272 1294.37 171.976C1286.31 164.552 1282.28 153.672 1282.28 139.336C1282.28 126.152 1285.93 115.144 1293.22 106.312C1300.65 97.48 1310.95 93.064 1324.13 93.064C1336.04 93.064 1345.45 96.648 1352.36 103.816C1359.4 110.856 1362.98 119.816 1363.11 130.696C1363.11 134.28 1362.73 138.12 1361.96 142.216H1303.78C1304.93 158.344 1312.61 166.408 1326.82 166.408C1333.48 166.408 1338.21 164.808 1341.03 161.608C1343.97 158.408 1345.89 155.016 1346.79 151.432L1363.88 154.696ZM1341.99 129.544C1342.5 124.424 1341.29 119.624 1338.34 115.144C1335.53 110.536 1330.73 108.232 1323.94 108.232C1317.8 108.232 1313.13 110.28 1309.93 114.376C1306.73 118.472 1304.74 123.528 1303.97 129.544H1341.99Z" fill="black"/>
<path d="M490.126 132.04H482.638V181H466.126L464.014 166.408C460.174 171.272 455.118 175.24 448.846 178.312C442.574 181.384 435.214 182.92 426.766 182.92C409.358 182.92 395.406 176.84 384.91 164.68C374.542 152.392 369.358 137.288 369.358 119.368C369.358 101.576 374.862 86.28 385.87 73.48C396.878 60.68 412.366 54.28 432.334 54.28C442.446 54.28 451.47 55.752 459.406 58.696C467.342 61.512 473.486 64.968 477.838 69.064L481.294 94.792L463.822 96.52L460.366 80.776C452.942 75.656 443.47 73.096 431.95 73.096C420.302 73.096 410.766 77.064 403.342 85C395.918 92.936 392.206 104.264 392.206 118.984C392.206 133.448 395.726 144.584 402.766 152.392C409.806 160.2 419.022 164.104 430.414 164.104C440.014 164.104 447.566 161.544 453.07 156.424C458.574 151.176 461.326 144.584 461.326 136.648V132.04H434.83V113.8H490.126V132.04ZM602.935 181H556.663V165.256H569.527V131.464C569.527 123.272 567.991 117.512 564.919 114.184C561.847 110.728 557.687 109 552.439 109C546.167 109 541.175 111.048 537.463 115.144C533.751 119.24 531.767 124.232 531.511 130.12V165.256H544.183V181H498.103V165.256H510.967V64.648H498.103V48.904H531.511V109C537.399 98.376 546.935 93.064 560.119 93.064C568.439 93.064 575.479 95.56 581.239 100.552C587.127 105.544 590.071 113.352 590.071 123.976V165.256H602.935V181ZM699.75 137.992C699.75 151.432 695.462 162.312 686.886 170.632C678.438 178.824 667.43 182.92 653.862 182.92C640.678 182.92 630.054 178.952 621.99 171.016C614.054 163.08 610.086 152.328 610.086 138.76C610.086 126.216 613.862 115.464 621.414 106.504C628.966 97.416 640.166 92.872 655.014 92.872C669.99 92.872 681.19 97.352 688.614 106.312C696.038 115.272 699.75 125.832 699.75 137.992ZM678.438 137.416C678.438 128.2 676.198 121.16 671.718 116.296C667.366 111.432 661.67 109 654.63 109C647.334 109 641.638 111.624 637.542 116.872C633.446 121.992 631.398 128.904 631.398 137.608C631.398 145.8 633.318 152.712 637.158 158.344C641.126 163.976 646.95 166.792 654.63 166.792C662.054 166.792 667.878 164.104 672.102 158.728C676.326 153.224 678.438 146.12 678.438 137.416ZM785.488 155.272C785.488 164.232 781.776 171.08 774.352 175.816C767.056 180.552 757.712 182.92 746.32 182.92C740.176 182.92 733.968 182.216 727.696 180.808C721.552 179.4 715.984 177.288 710.992 174.472L714.064 152.2L730.192 153.736L730 164.872C732.432 165.896 734.992 166.6 737.68 166.984C740.496 167.368 742.992 167.56 745.168 167.56C750.416 167.56 754.96 166.664 758.8 164.872C762.768 162.952 764.752 160.136 764.752 156.424C764.752 152.84 762.96 150.28 759.376 148.744C755.92 147.208 751.568 146.056 746.32 145.288C741.072 144.392 735.824 143.24 730.576 141.832C725.328 140.296 720.912 137.864 717.328 134.536C713.872 131.08 712.144 125.96 712.144 119.176C712.144 109.192 715.92 102.344 723.472 98.632C731.152 94.92 739.216 93.064 747.664 93.064C758.8 93.064 769.296 95.688 779.152 100.936L781.264 122.248L765.136 124.168L763.408 111.304C758.416 109.384 753.36 108.424 748.24 108.424C744.272 108.424 740.88 109.256 738.064 110.92C735.376 112.456 734.032 114.952 734.032 118.408C734.032 121.992 735.76 124.488 739.216 125.896C742.672 127.304 746.96 128.456 752.08 129.352C757.2 130.12 762.32 131.272 767.44 132.808C772.56 134.216 776.848 136.648 780.304 140.104C783.76 143.432 785.488 148.488 785.488 155.272ZM866.353 155.656C863.921 173.832 853.809 182.92 836.017 182.92C826.801 182.92 819.441 180.488 813.937 175.624C808.561 170.76 805.873 163.976 805.873 155.272V109.96H793.201V94.792H805.873V68.104H826.417V94.792H858.481V109.96H826.417V152.008C826.417 161.096 830.385 165.64 838.321 165.64C840.497 165.64 842.929 164.872 845.617 163.336C848.305 161.672 850.161 157.512 851.185 150.856L866.353 155.656Z" fill="#9E9D9B"/>
<path d="M138.032 266.832C138.032 269.936 136.944 272.32 134.768 273.984C132.624 275.648 129.776 276.48 126.224 276.48C124.112 276.48 122.064 276.224 120.08 275.712C118.128 275.2 116.576 274.464 115.424 273.504L116.288 266.352L120.56 266.784L120.464 270.624C121.52 271.168 122.48 271.52 123.344 271.68C124.24 271.808 125.072 271.872 125.84 271.872C127.696 271.872 129.232 271.584 130.448 271.008C131.696 270.4 132.32 269.2 132.32 267.408C132.32 265.456 131.616 264.16 130.208 263.52C128.8 262.848 127.184 262.336 125.36 261.984C123.888 261.696 122.4 261.312 120.896 260.832C119.392 260.352 118.144 259.552 117.152 258.432C116.16 257.312 115.664 255.664 115.664 253.488C115.664 250.224 116.768 247.888 118.976 246.48C121.216 245.04 123.712 244.32 126.464 244.32C128.384 244.32 130.24 244.608 132.032 245.184C133.856 245.76 135.28 246.512 136.304 247.44L136.592 254.016L132.32 254.4L131.888 250.368C130.992 249.856 130.096 249.504 129.2 249.312C128.304 249.12 127.44 249.024 126.608 249.024C125.104 249.024 123.856 249.328 122.864 249.936C121.872 250.544 121.376 251.52 121.376 252.864C121.376 254.432 121.984 255.504 123.2 256.08C124.448 256.624 125.84 257.072 127.376 257.424C128.688 257.712 130.176 258.096 131.84 258.576C133.504 259.056 134.944 259.92 136.16 261.168C137.408 262.384 138.032 264.272 138.032 266.832ZM212.617 254.976L208.009 255.36L207.049 249.36H200.953V271.44H206.185V276H190.585V271.44H195.625V249.36H189.481L188.521 255.36L183.961 254.976L184.921 244.8H211.657L212.617 254.976ZM289.833 249.36H286.953V263.136C286.953 265.344 286.537 267.472 285.705 269.52C284.905 271.536 283.545 273.2 281.625 274.512C279.737 275.824 277.161 276.48 273.897 276.48C269.193 276.48 265.913 275.184 264.057 272.592C262.201 270 261.273 267.024 261.273 263.664V249.36H258.297V244.8H270.489V249.36H266.601V263.52C266.601 265.984 267.193 267.984 268.377 269.52C269.561 271.024 271.497 271.776 274.185 271.776C276.809 271.776 278.761 271.024 280.041 269.52C281.321 267.984 281.961 265.856 281.961 263.136V249.36H277.977V244.8H289.833V249.36ZM366.669 260.304C366.669 264.976 365.277 268.768 362.493 271.68C359.709 274.56 355.853 276 350.925 276H336.429V271.44H340.029V249.36H336.429V244.8H350.637C355.885 244.8 359.869 246.24 362.589 249.12C365.309 252 366.669 255.728 366.669 260.304ZM360.957 260.352C360.957 253.024 357.469 249.36 350.493 249.36H345.357V271.44H350.493C357.469 271.44 360.957 267.744 360.957 260.352ZM425.25 276H412.77V271.44H416.37V249.36H412.77V244.8H425.25V249.36H421.698V271.44H425.25V276ZM502.966 260.352C502.966 264.768 501.542 268.56 498.694 271.728C495.846 274.896 491.958 276.48 487.03 276.48C482.07 276.48 478.214 274.896 475.462 271.728C472.71 268.56 471.334 264.8 471.334 260.448C471.334 255.904 472.774 252.08 475.654 248.976C478.534 245.872 482.374 244.32 487.174 244.32C492.038 244.32 495.878 245.904 498.694 249.072C501.542 252.208 502.966 255.968 502.966 260.352ZM497.206 260.496C497.206 257.008 496.31 254.224 494.518 252.144C492.758 250.064 490.294 249.024 487.126 249.024C483.798 249.024 481.286 250.112 479.59 252.288C477.926 254.432 477.094 257.104 477.094 260.304C477.094 263.408 477.91 266.096 479.542 268.368C481.206 270.64 483.782 271.776 487.27 271.776C490.566 271.776 493.046 270.72 494.71 268.608C496.374 266.464 497.206 263.76 497.206 260.496ZM733.764 276H710.004V271.44H713.604V249.36H710.004V244.8H733.428L734.388 253.824L729.828 254.208L728.868 249.36H718.932V258H732.66V262.56H718.932V271.44H729.204L730.164 266.592L734.724 266.976L733.764 276ZM804.22 266.832C804.22 269.936 803.132 272.32 800.956 273.984C798.812 275.648 795.964 276.48 792.412 276.48C790.3 276.48 788.252 276.224 786.268 275.712C784.316 275.2 782.764 274.464 781.612 273.504L782.476 266.352L786.748 266.784L786.652 270.624C787.708 271.168 788.668 271.52 789.532 271.68C790.428 271.808 791.26 271.872 792.028 271.872C793.884 271.872 795.42 271.584 796.636 271.008C797.884 270.4 798.508 269.2 798.508 267.408C798.508 265.456 797.804 264.16 796.396 263.52C794.988 262.848 793.372 262.336 791.548 261.984C790.076 261.696 788.588 261.312 787.084 260.832C785.58 260.352 784.332 259.552 783.34 258.432C782.348 257.312 781.852 255.664 781.852 253.488C781.852 250.224 782.956 247.888 785.164 246.48C787.404 245.04 789.9 244.32 792.652 244.32C794.572 244.32 796.428 244.608 798.22 245.184C800.044 245.76 801.468 246.512 802.492 247.44L802.78 254.016L798.508 254.4L798.076 250.368C797.18 249.856 796.284 249.504 795.388 249.312C794.492 249.12 793.628 249.024 792.796 249.024C791.292 249.024 790.044 249.328 789.052 249.936C788.06 250.544 787.564 251.52 787.564 252.864C787.564 254.432 788.172 255.504 789.388 256.08C790.636 256.624 792.028 257.072 793.564 257.424C794.876 257.712 796.364 258.096 798.028 258.576C799.692 259.056 801.132 259.92 802.348 261.168C803.596 262.384 804.22 264.272 804.22 266.832ZM878.805 254.976L874.197 255.36L873.237 249.36H867.141V271.44H872.373V276H856.773V271.44H861.813V249.36H855.669L854.709 255.36L850.149 254.976L851.109 244.8H877.845L878.805 254.976ZM922.765 276V269.184H929.101V276H922.765ZM1030.9 252.48C1032.47 251.776 1034.07 251.28 1035.7 250.992C1037.33 250.672 1038.77 250.512 1040.02 250.512C1043.57 250.512 1046.07 251.28 1047.51 252.816C1048.95 254.352 1049.67 256.032 1049.67 257.856C1049.67 260 1048.92 261.888 1047.41 263.52C1045.91 265.152 1044.07 266.608 1041.89 267.888C1039.75 269.136 1037.67 270.32 1035.65 271.44H1046.69L1047.08 268.224L1051.4 268.608L1050.72 276H1029.8L1029.32 271.824C1033.41 269.168 1036.87 266.848 1039.68 264.864C1042.53 262.848 1043.96 260.768 1043.96 258.624C1043.96 257.408 1043.51 256.512 1042.61 255.936C1041.75 255.36 1040.61 255.072 1039.2 255.072C1038.56 255.072 1037.83 255.136 1037 255.264C1036.16 255.392 1035.44 255.616 1034.84 255.936L1034.07 259.488L1029.94 259.056L1030.9 252.48ZM1121.88 263.712C1121.88 267.936 1120.79 271.12 1118.61 273.264C1116.44 275.408 1113.46 276.48 1109.68 276.48C1105.88 276.48 1102.93 275.408 1100.85 273.264C1098.8 271.12 1097.78 267.968 1097.78 263.808C1097.78 259.904 1098.8 256.72 1100.85 254.256C1102.9 251.76 1105.91 250.512 1109.88 250.512C1114 250.512 1117.03 251.776 1118.95 254.304C1120.9 256.8 1121.88 259.936 1121.88 263.712ZM1116.16 263.472C1116.16 260.464 1115.6 258.336 1114.48 257.088C1113.4 255.84 1111.84 255.216 1109.83 255.216C1107.78 255.216 1106.21 255.856 1105.12 257.136C1104.04 258.416 1103.49 260.528 1103.49 263.472C1103.49 266.448 1104.02 268.576 1105.08 269.856C1106.16 271.136 1107.73 271.776 1109.78 271.776C1111.73 271.776 1113.28 271.168 1114.44 269.952C1115.59 268.736 1116.16 266.576 1116.16 263.472ZM1170.36 252.48C1171.93 251.776 1173.53 251.28 1175.16 250.992C1176.8 250.672 1178.24 250.512 1179.48 250.512C1183.04 250.512 1185.53 251.28 1186.97 252.816C1188.41 254.352 1189.13 256.032 1189.13 257.856C1189.13 260 1188.38 261.888 1186.88 263.52C1185.37 265.152 1183.53 266.608 1181.36 267.888C1179.21 269.136 1177.13 270.32 1175.12 271.44H1186.16L1186.54 268.224L1190.86 268.608L1190.19 276H1169.26L1168.78 271.824C1172.88 269.168 1176.33 266.848 1179.15 264.864C1182 262.848 1183.42 260.768 1183.42 258.624C1183.42 257.408 1182.97 256.512 1182.08 255.936C1181.21 255.36 1180.08 255.072 1178.67 255.072C1178.03 255.072 1177.29 255.136 1176.46 255.264C1175.63 255.392 1174.91 255.616 1174.3 255.936L1173.53 259.488L1169.4 259.056L1170.36 252.48ZM1253.66 276H1237.72V271.44H1243.19V255.552H1237.72V250.992H1248.52V271.44H1253.66V276Z" fill="#7A7A7A"/>
<path d="M608.418 240.96V279.84H604.002V240.96H608.418Z" fill="black"/>
</svg>
